<?xml version="1.0" encoding="utf-8"?>
<!-- Generator: Adobe Illustrator 22.1.0, SVG Export Plug-In . SVG Version: 6.00 Build 0)  -->
<svg version="1.1" id="Layer_1" xmlns="http://www.w3.org/2000/svg" xmlns:xlink="http://www.w3.org/1999/xlink" x="0px" y="0px"
	 viewBox="0 0 450 110" style="enable-background:new 0 0 450 110;" xml:space="preserve">
<g>
	<path d="M23.1,12.2h3.7v6.5h-2.5c-3.5,0-4.1,2-4.1,5.1v20.7c-0.1,7.2-3.4,10.4-6.6,10.9c-0.5,0.1-0.6,0.5,0,0.6
		c3.2,0.4,6.5,3,6.6,11.1V88c0,3.7,0.9,5.3,4.1,5.3h2.5v6.5h-3.6c-5.2,0-9.1-4-9.1-10.8V67.9c0-4.7-2.3-9.2-7.5-9.2v-6
		c5.2,0,7.5-3.8,7.5-9.6V22.7C14.1,16,18.2,12.2,23.1,12.2z"/>
	<path d="M87.3,43.1c0,5.8,2.3,9.6,7.5,9.6v6c-5.1,0-7.5,4.6-7.5,9.2V89c0,6.8-3.9,10.8-9.1,10.8h-3.6v-6.5h2.5
		c3.2,0,4.1-1.6,4.1-5.3V67.1c0.1-8.1,3.5-10.7,6.6-11.1c0.6-0.1,0.5-0.5,0-0.6c-3.2-0.5-6.5-3.7-6.6-10.9V23.8
		c0-3.1-0.6-5.1-4.1-5.1h-2.5v-6.5h3.7c4.9,0,9,3.8,9,10.6V43.1z"/>
</g>
<g>
	<rect x="36.3" y="22.6" width="6.7" height="67.1"/>
	<rect x="58.5" y="29.5" width="6.7" height="60.2"/>
	<rect x="49.3" y="39.2" transform="matrix(-0.7071 -0.7071 0.7071 -0.7071 51.2238 123.6103)" width="3.8" height="24"/>
	<rect x="48.7" y="39.2" transform="matrix(0.7071 -0.7071 0.7071 0.7071 -21.4001 50.7284)" width="3.8" height="24"/>
	<rect x="48.5" y="29.4" transform="matrix(4.652751e-11 -1 1 4.652751e-11 9.0482 91.7665)" width="3.8" height="24"/>
	<rect x="48.5" y="48.5" transform="matrix(-1.696360e-12 -1 1 -1.696360e-12 -10.0567 110.8713)" width="3.8" height="24"/>
	<rect x="49.3" y="59.7" transform="matrix(-0.7071 -0.7071 0.7071 -0.7071 36.7208 158.6237)" width="3.8" height="24"/>
	<rect x="48.7" y="59.7" transform="matrix(0.7071 -0.7071 0.7071 0.7071 -35.9031 56.7357)" width="3.8" height="24"/>
	<rect x="48.5" y="68.1" transform="matrix(-1.453887e-12 -1 1 -1.453887e-12 -29.6347 130.4494)" width="3.8" height="24"/>
</g>
<g>
	<path d="M170.7,29h-9.5c-0.5-2.9-2.4-4.7-5.5-4.7c-3.4,0-5.9,2.2-5.9,9c0,6.9,2.5,9.6,5.9,9.6c3.1,0,5-2.5,5.5-5.3h9.5
		c-0.9,6.5-3.9,12.1-14.7,12.1c-9.8,0-16.2-6.9-16.2-16.4c0-9.5,6.3-15.6,16.2-15.6C164.1,17.6,170,22.3,170.7,29z"/>
</g>
<g>
	<path d="M178.3,33.7c0-9.7,6.5-16.1,16.4-16.1c9.8,0,16.3,6.3,16.3,16.1c0,9.6-6.4,15.9-16.3,15.9
		C184.6,49.6,178.3,43.4,178.3,33.7z M201.1,33.8c0-6.9-2.7-9.5-6.4-9.5s-6.5,2.5-6.5,9.5c0,6.7,2.8,9.1,6.5,9.1
		S201.1,40.5,201.1,33.8z"/>
</g>
<g>
	<path d="M231.3,18.1c12.2,0.4,17.5,6.6,17.5,15.4c0,9.1-5.6,15.7-17.5,15.7h-12.1V18C220.2,18,228.4,18,231.3,18.1z M228.3,42.6
		h3.3c3.5,0,7.8-2.5,7.8-9.2c0-5.7-3.1-8.7-7.8-8.7h-3.3V42.6z"/>
</g>
<g>
	<path d="M256,18H281l0,6.9h-15.7v5.2h13.2v6.8h-13.2v5.3H281v7h-25V18z"/>
</g>
<g>
	<path d="M332.6,18l0,6.8h-15.6v5.6h13v6.7h-13v12h-9.1V18H332.6z"/>
</g>
<g>
	<path d="M339.1,33.7c0-9.7,6.5-16.1,16.4-16.1c9.8,0,16.3,6.3,16.3,16.1c0,9.6-6.4,15.9-16.3,15.9
		C345.4,49.6,339.1,43.4,339.1,33.7z M361.9,33.8c0-6.9-2.7-9.5-6.4-9.5c-3.7,0-6.5,2.5-6.5,9.5c0,6.7,2.8,9.1,6.5,9.1
		C359.2,42.9,361.9,40.5,361.9,33.8z"/>
</g>
<g>
	<path d="M397.8,49.2l-4.9-10.7h-4.8v10.7H379V18h15.3c8.8,0,12.2,4.4,12.2,10c0,4.8-2.2,7.3-5.4,9l5.9,12.1H397.8z M397.4,28.2
		c0-2.2-2-3.9-4.1-3.9h-5.2v8h5.2C395.7,32.2,397.4,30.2,397.4,28.2z"/>
</g>
<g>
	<path d="M108,84h1.5c0.2,1.1,0.5,2.1,1.1,3c0.5,0.9,1.2,1.7,2,2.3c0.8,0.6,1.7,1.1,2.8,1.4s2.2,0.5,3.4,0.5c2,0,3.6-0.4,4.7-1.3
		c1.2-0.9,1.7-2.1,1.7-3.5c0-0.6-0.1-1.2-0.3-1.7c-0.2-0.5-0.6-1-1.2-1.5c-0.5-0.5-1.3-1-2.2-1.4c-0.9-0.5-2-1-3.4-1.5
		c-1.7-0.7-3.1-1.3-4.2-1.9c-1.1-0.6-2-1.3-2.7-1.9c-0.7-0.7-1.2-1.4-1.4-2.1c-0.3-0.8-0.4-1.6-0.4-2.6c0-1.1,0.2-2.2,0.7-3.2
		c0.4-1,1.1-1.8,1.9-2.5s1.8-1.3,2.9-1.6c1.1-0.4,2.3-0.6,3.6-0.6c1.2,0,2.3,0.2,3.3,0.5c1,0.3,2.1,0.9,3.1,1.7l1.1-1.7h0.9l0.4,7.4
		h-1.5c-0.6-2-1.6-3.6-2.8-4.6c-1.2-1-2.7-1.5-4.4-1.5c-1.6,0-3,0.4-3.9,1.1c-1,0.7-1.5,1.8-1.5,3c0,0.6,0.1,1.1,0.3,1.6
		c0.2,0.5,0.6,0.9,1.1,1.4c0.5,0.4,1.1,0.9,1.9,1.3c0.8,0.4,1.8,0.9,2.9,1.4c2,0.8,3.7,1.6,5,2.3c1.3,0.7,2.4,1.4,3.2,2.1
		c0.8,0.7,1.3,1.5,1.7,2.2s0.5,1.7,0.5,2.6c0,1.2-0.3,2.4-0.8,3.4c-0.5,1-1.3,1.9-2.3,2.7s-2.1,1.3-3.5,1.7
		c-1.4,0.4-2.8,0.6-4.5,0.6c-1.5,0-2.9-0.2-4.2-0.6c-1.2-0.4-2.5-1.1-3.7-2l-1.1,1.8h-0.9L108,84z"/>
</g>
<g>
	<path d="M151.7,82.4h-10.8c-0.5,1-0.9,1.9-1.2,2.7s-0.6,1.5-0.8,2c-0.2,0.6-0.3,1.1-0.4,1.5c-0.1,0.4-0.1,0.7-0.1,1
		c0,0.7,0.2,1.2,0.7,1.4s1.3,0.4,2.4,0.4v1.4h-9.8v-1.4c0.6-0.1,1.2-0.2,1.6-0.3c0.4-0.1,0.8-0.3,1.2-0.5c0.3-0.2,0.6-0.5,0.9-0.9
		c0.3-0.4,0.5-0.8,0.7-1.3L146.7,64h1.7l9.2,21.1c0.6,1.4,1.2,2.5,1.6,3.3c0.5,0.8,0.9,1.5,1.3,1.9c0.4,0.4,0.9,0.7,1.4,0.8
		c0.5,0.1,1.1,0.2,1.8,0.2v1.5h-13.2v-1.5c1.4,0,2.4-0.1,3-0.4c0.5-0.2,0.8-0.7,0.8-1.2c0-0.2,0-0.5,0-0.7c0-0.2-0.1-0.4-0.1-0.7
		c-0.1-0.2-0.2-0.5-0.3-0.8c-0.1-0.3-0.3-0.7-0.5-1.1L151.7,82.4z M141.7,80.5h9.2l-4.5-11L141.7,80.5z"/>
</g>
<g>
	<path d="M189.5,64h1.1l0.4,8.6h-1.5c-0.6-2.2-1.7-3.9-3.4-5.2s-3.8-1.9-6.2-1.9c-1.6,0-3.1,0.3-4.4,0.9c-1.3,0.6-2.4,1.5-3.3,2.6
		s-1.6,2.5-2,4.1c-0.5,1.6-0.7,3.4-0.7,5.5c0,4,0.9,7.1,2.7,9.2c1.8,2.2,4.4,3.2,7.9,3.2c5.2,0,8.6-2.6,10-7.7h1.7v9.3h-1.4
		l-0.9-2.9c-2.8,2.2-6.3,3.3-10.3,3.3c-2.3,0-4.4-0.3-6.2-1c-1.9-0.7-3.4-1.6-4.7-2.9c-1.3-1.2-2.3-2.7-3-4.5
		c-0.7-1.8-1.1-3.7-1.1-5.9c0-2.3,0.4-4.3,1.1-6.2c0.8-1.9,1.8-3.5,3.2-4.8c1.4-1.3,3-2.4,4.9-3.1c1.9-0.7,4-1.1,6.3-1.1
		c1.6,0,3.1,0.2,4.6,0.6c1.4,0.4,3,1.1,4.7,2.1L189.5,64z"/>
</g>
<g>
	<path d="M221.6,71.2c0,2-0.6,3.6-1.9,5c-1.3,1.3-3.4,2.2-6.2,2.7l9,9.9c0.7,0.8,1.5,1.4,2.4,1.8c0.9,0.4,1.9,0.6,3.1,0.8v1.4h-7.8
		l-9.9-11.7c-0.4-0.4-0.7-0.8-1-1c-0.3-0.2-0.6-0.4-1-0.6c-0.3-0.1-0.7-0.2-1.2-0.3c-0.4,0-1-0.1-1.6-0.1v7.8c0,0.9,0.1,1.7,0.2,2.3
		c0.1,0.6,0.4,1,0.8,1.4c0.4,0.3,1,0.5,1.7,0.7c0.7,0.1,1.7,0.2,2.9,0.2v1.4h-14.3v-1.4c0.9,0,1.7-0.1,2.3-0.2
		c0.6-0.1,1-0.3,1.4-0.6s0.5-0.7,0.6-1.3c0.1-0.5,0.2-1.3,0.2-2.1V69.7c0-0.9,0-1.6-0.1-2.1c-0.1-0.5-0.3-1-0.6-1.3
		c-0.3-0.3-0.7-0.5-1.2-0.6c-0.5-0.1-1.2-0.2-2.1-0.2V64h12.7c3.7,0,6.6,0.6,8.7,1.9C220.6,67.2,221.6,69,221.6,71.2z M205.5,77.3
		h2.9c2.7,0,4.7-0.5,6-1.4c1.3-0.9,2-2.4,2-4.5c0-2-0.5-3.5-1.6-4.3c-1-0.9-2.7-1.3-4.9-1.3h-3.7c-0.5,0-0.7,0.2-0.7,0.6V77.3z"/>
</g>
<g>
	<path d="M249.9,82.4h-10.8c-0.5,1-0.9,1.9-1.2,2.7s-0.6,1.5-0.8,2c-0.2,0.6-0.3,1.1-0.4,1.5c-0.1,0.4-0.1,0.7-0.1,1
		c0,0.7,0.2,1.2,0.7,1.4s1.3,0.4,2.4,0.4v1.4h-9.8v-1.4c0.6-0.1,1.2-0.2,1.6-0.3c0.4-0.1,0.8-0.3,1.2-0.5c0.3-0.2,0.6-0.5,0.9-0.9
		c0.3-0.4,0.5-0.8,0.7-1.3L244.8,64h1.7l9.2,21.1c0.6,1.4,1.2,2.5,1.6,3.3c0.5,0.8,0.9,1.5,1.3,1.9c0.4,0.4,0.9,0.7,1.4,0.8
		c0.5,0.1,1.1,0.2,1.8,0.2v1.5h-13.2v-1.5c1.4,0,2.4-0.1,3-0.4c0.5-0.2,0.8-0.7,0.8-1.2c0-0.2,0-0.5,0-0.7c0-0.2-0.1-0.4-0.1-0.7
		c-0.1-0.2-0.2-0.5-0.3-0.8c-0.1-0.3-0.3-0.7-0.5-1.1L249.9,82.4z M239.9,80.5h9.2l-4.5-11L239.9,80.5z"/>
</g>
<g>
	<path d="M284.5,86.1L295,64h9.1v1.4c-0.9,0-1.6,0.1-2.1,0.3c-0.5,0.2-0.9,0.5-1.2,0.9c-0.3,0.4-0.5,1-0.6,1.7
		c-0.1,0.7-0.1,1.6-0.1,2.8v14.6c0,1.2,0.1,2.2,0.2,2.9c0.1,0.7,0.3,1.3,0.6,1.7c0.3,0.4,0.8,0.7,1.3,0.8c0.6,0.1,1.3,0.2,2.3,0.2
		v1.4h-13.1v-1.4c0.9,0,1.7-0.1,2.3-0.2c0.6-0.1,1-0.4,1.4-0.8c0.3-0.4,0.5-0.9,0.6-1.6c0.1-0.7,0.2-1.6,0.2-2.8V68.7h-0.4
		l-11.8,24.5h-0.9l-11.6-24.5h-0.2v17.1c0,1.2,0.1,2.2,0.2,2.9c0.1,0.7,0.3,1.3,0.6,1.7c0.3,0.4,0.8,0.7,1.3,0.8
		c0.6,0.1,1.3,0.2,2.3,0.2v1.4H264v-1.4c0.9,0,1.7-0.1,2.3-0.2c0.6-0.1,1-0.4,1.4-0.8c0.3-0.4,0.5-0.9,0.6-1.6
		c0.1-0.7,0.2-1.6,0.2-2.8V70.8c0-1,0-1.9-0.1-2.6c-0.1-0.7-0.3-1.2-0.6-1.6c-0.3-0.4-0.7-0.7-1.2-0.8c-0.5-0.2-1.2-0.3-2.1-0.3V64
		h9.7l10.2,22.1H284.5z"/>
</g>
<g>
	<path d="M317.7,77c1.5,0,2.7-0.1,3.7-0.2c1-0.2,1.8-0.4,2.4-0.8c0.6-0.3,1-0.8,1.3-1.3c0.3-0.5,0.4-1.2,0.4-1.9h1.4v10.2h-1.4
		c0-0.7-0.1-1.4-0.3-1.9c-0.2-0.5-0.6-1-1.2-1.4c-0.6-0.4-1.4-0.6-2.4-0.8c-1-0.2-2.2-0.3-3.7-0.3v8.4c0,0.8,0.1,1.5,0.3,2
		s0.6,1,1.1,1.3c0.5,0.3,1.2,0.6,2.1,0.7c0.9,0.1,1.9,0.2,3.2,0.2c1.4,0,2.6-0.1,3.6-0.3c1-0.2,1.8-0.5,2.5-1c0.7-0.4,1.2-1,1.6-1.8
		s0.7-1.6,1-2.7h1.5l-0.6,7.4H309v-1.4c0.9,0,1.7-0.1,2.3-0.2c0.6-0.1,1-0.3,1.4-0.6s0.5-0.7,0.6-1.3c0.1-0.5,0.2-1.3,0.2-2.1V69.7
		c0-0.9,0-1.6-0.1-2.1c-0.1-0.5-0.3-1-0.6-1.3c-0.3-0.3-0.7-0.5-1.2-0.6c-0.5-0.1-1.2-0.2-2.1-0.2V64h23.4l0.4,6.6h-1.4
		c-0.2-1-0.4-1.8-0.8-2.4c-0.4-0.6-0.9-1.1-1.5-1.5s-1.4-0.6-2.4-0.8s-2.1-0.2-3.5-0.2h-5.1c-0.5,0-0.7,0.2-0.7,0.6V77z"/>
</g>
<g>
	<path d="M365.5,93.2l-19.2-23.4h-0.2v15.9c0,1.2,0,2.2,0.1,2.9c0.1,0.7,0.3,1.3,0.6,1.7c0.3,0.4,0.7,0.7,1.2,0.8
		c0.5,0.1,1.2,0.2,2.1,0.2v1.4h-10.9v-1.4c0.9,0,1.7-0.1,2.3-0.2c0.6-0.1,1-0.4,1.4-0.8c0.3-0.4,0.5-0.9,0.6-1.6
		c0.1-0.7,0.2-1.6,0.2-2.8V70.8c0-1,0-1.9-0.1-2.6c-0.1-0.7-0.3-1.2-0.6-1.6c-0.3-0.4-0.7-0.7-1.2-0.8c-0.5-0.2-1.2-0.3-2.1-0.3V64
		h8l17.7,21.8h0.2V71.1c0-1.2,0-2.2-0.1-2.9c-0.1-0.7-0.3-1.3-0.6-1.7c-0.3-0.4-0.7-0.7-1.2-0.8c-0.5-0.1-1.2-0.2-2.1-0.2V64h10.9
		v1.4c-0.9,0-1.7,0.1-2.3,0.2c-0.6,0.1-1,0.4-1.4,0.8s-0.5,0.9-0.6,1.6c-0.1,0.7-0.2,1.6-0.2,2.8v22.3H365.5z"/>
</g>
<g>
	<path d="M406.6,71.2H405c-0.1-1.1-0.3-2-0.6-2.7c-0.3-0.7-0.7-1.3-1.3-1.7s-1.3-0.7-2.1-0.9c-0.8-0.2-1.8-0.3-3-0.3
		c-1,0-1.8,0-2.4,0.1c-0.6,0-1.1,0.1-1.4,0.2c-0.3,0.1-0.5,0.2-0.6,0.4c-0.1,0.1-0.1,0.3-0.1,0.5v20c0,0.8,0.1,1.5,0.2,2.1
		c0.1,0.6,0.4,1,0.7,1.4s0.9,0.6,1.6,0.8c0.7,0.2,1.6,0.3,2.7,0.3v1.4h-15.3v-1.4c1.1,0,2.1-0.1,2.8-0.3s1.2-0.5,1.6-0.8
		c0.4-0.4,0.6-0.8,0.7-1.4c0.1-0.6,0.2-1.3,0.2-2.1v-20c0-0.2,0-0.4-0.1-0.5c-0.1-0.1-0.3-0.3-0.6-0.4c-0.3-0.1-0.7-0.2-1.2-0.2
		c-0.5,0-1.2-0.1-2.1-0.1c-1.1,0-2,0-2.9,0.1c-0.9,0.1-1.7,0.3-2.4,0.7c-0.7,0.4-1.2,0.9-1.6,1.7c-0.4,0.7-0.6,1.8-0.6,3.1h-1.5V64
		h30.6L406.6,71.2z"/>
</g>
<g>
	<path d="M426.1,63.7c2.4,0,4.6,0.4,6.6,1.2c2.1,0.8,3.8,1.8,5.3,3.2c1.5,1.3,2.7,2.9,3.6,4.7c0.9,1.8,1.3,3.8,1.3,5.9
		c0,2-0.4,3.9-1.3,5.7c-0.9,1.8-2.1,3.3-3.6,4.6c-1.5,1.3-3.3,2.3-5.3,3.1c-2.1,0.8-4.3,1.1-6.6,1.1s-4.6-0.4-6.6-1.1
		c-2.1-0.8-3.8-1.8-5.3-3.1c-1.5-1.3-2.7-2.8-3.6-4.6s-1.3-3.7-1.3-5.7c0-2.1,0.4-4.1,1.3-5.9c0.9-1.8,2.1-3.4,3.6-4.7
		c1.5-1.3,3.3-2.4,5.3-3.2C421.5,64,423.7,63.7,426.1,63.7z M426.1,91.1c1.8,0,3.4-0.3,4.8-0.9c1.4-0.6,2.6-1.4,3.6-2.5
		c1-1.1,1.8-2.4,2.3-3.9c0.5-1.5,0.8-3.2,0.8-5.1c0-2-0.3-3.8-0.8-5.4c-0.5-1.6-1.3-3-2.3-4.1c-1-1.1-2.2-2-3.6-2.6
		c-1.4-0.6-3-0.9-4.8-0.9s-3.4,0.3-4.8,0.9c-1.4,0.6-2.6,1.5-3.6,2.6c-1,1.1-1.8,2.5-2.3,4.1c-0.5,1.6-0.8,3.4-0.8,5.4
		c0,1.9,0.3,3.6,0.8,5.1c0.5,1.5,1.3,2.8,2.3,3.9c1,1.1,2.2,1.9,3.6,2.5C422.7,90.8,424.3,91.1,426.1,91.1z"/>
</g>
</svg>
