<?xml version="1.0" encoding="utf-8"?>
<!-- Generator: Adobe Illustrator 22.1.0, SVG Export Plug-In . SVG Version: 6.00 Build 0)  -->
<svg version="1.1" id="Layer_1" xmlns="http://www.w3.org/2000/svg" xmlns:xlink="http://www.w3.org/1999/xlink" x="0px" y="0px"
	 viewBox="0 0 146 37" style="enable-background:new 0 0 146 37;" xml:space="preserve">
<style type="text/css">
	.st0{font-family:'PublicSans-Regular';}
	.st1{font-size:23.5813px;}
	.st2{font-family:'PublicSans-Bold';}
	.st3{font-size:14.7635px;}
	.st4{letter-spacing:2;}
	.st5{letter-spacing:6.1;}
	.st6{letter-spacing:3.1;}
	.st7{font-family:'PublicSans-Thin';}
</style>
<g>
	<text transform="matrix(1.2517 0 0 1.5 0.8633 28.4736)" class="st0 st1">{   }</text>
	<g>
		<rect x="23.1" y="7.2" width="1.8" height="24.2"/>
		<rect x="19.1" y="8.2" transform="matrix(-1.836970e-16 1 -1 -1.836970e-16 32.7162 -6.831)" width="1.3" height="9.5"/>
		<rect x="19.1" y="15.5" transform="matrix(-1.836970e-16 1 -1 -1.836970e-16 40.0042 0.457)" width="1.3" height="9.5"/>
		<rect x="19.1" y="22.8" transform="matrix(-1.836970e-16 1 -1 -1.836970e-16 47.2922 7.745)" width="1.3" height="9.5"/>
		<polygon points="16.4,12.6 15.7,13.7 23.1,20.5 23.8,19.5 		"/>
		<polygon points="23.1,12.6 23.8,13.7 16.4,20.5 15.7,19.5 		"/>
		<polygon points="16.4,19.9 15.7,21 23.1,27.8 23.8,26.8 		"/>
		<polygon points="23.1,19.9 23.8,21 16.4,27.8 15.7,26.8 		"/>
		<rect x="14.7" y="5.4" width="1.8" height="26"/>
	</g>
	<text transform="matrix(0.9768 0 0 0.9 48.689 16.6611)"><tspan x="0" y="0" class="st2 st3 st4">COD</tspan><tspan x="41.6" y="0" class="st2 st3 st5">E</tspan><tspan x="57.5" y="0" class="st2 st3 st4">F</tspan><tspan x="69.4" y="0" class="st2 st3 st4">O</tspan><tspan x="83.8" y="0" class="st2 st3 st6">R</tspan><tspan x="-4" y="16.3" class="st7 st3">S</tspan><tspan x="6.1" y="16.3" class="st7 st3">A</tspan><tspan x="16" y="16.3" class="st7 st3">C</tspan><tspan x="26" y="16.3" class="st7 st3">R</tspan><tspan x="36.1" y="16.3" class="st7 st3">A</tspan><tspan x="46.2" y="16.3" class="st7 st3">M</tspan><tspan x="59.4" y="16.3" class="st7 st3">ENTO</tspan></text>
</g>
</svg>
