<?xml version="1.0" encoding="utf-8"?>
<!-- Generator: Adobe Illustrator 18.1.1, SVG Export Plug-In . SVG Version: 6.00 Build 0)  -->
<svg version="1.1" id="Layer_1" xmlns="http://www.w3.org/2000/svg" xmlns:xlink="http://www.w3.org/1999/xlink" x="0px" y="0px"
	 viewBox="0 0 911.5 194.4" enable-background="new 0 0 911.5 194.4" xml:space="preserve">
<g>
	<g>
		<path fill="#141A22" d="M614.1,68.7c-21.2-7.9-30.5-12.5-30.5-22.8c0-8.4,7.8-15.6,23.9-15.6c16.1,0,27.8,4.6,34.4,7.7l8.3-29.5
			c-9.7-4.3-23.4-8.2-41.9-8.2c-38.7,0-62.1,21.1-62.1,48.7c0,3.3,0.4,6.3,1,9.3h13h21.4l-4,21l-2,10.9c4.8,2.5,10,4.6,15.7,6.6
			c19.7,7,27.5,12.7,27.5,22.8c0,10.6-9,17.5-26.1,17.5c-4,0-8-0.3-11.9-0.9l-2.5,13.5l-3,16.4c4.9,0.6,10,1,15.2,1
			c45.1,0,66.3-23,66.3-50.1C656.7,94.1,643.1,79.3,614.1,68.7z"/>
	</g>
	<g>
		<path fill="#141A22" d="M909.6,160.7l-5.6-28.7c-7.3,2.9-19.8,5.3-31.1,5.3c-33.3,0-52.9-20.5-52.9-53.1c0-36.2,23-53.8,52.7-53.8
			c13.2,0,23.8,2.9,31.4,6l7.6-29.2C904.9,3.9,890.2,0,870.8,0c-39,0-72.1,18.8-84.7,53.6l32.4,102.9c13,7.2,29.2,11.3,48.6,11.3
			C887.3,167.7,902.7,164.1,909.6,160.7z"/>
		<path fill="#141A22" d="M750,2.7h-49L672.3,95c2.5,6.9,3.8,14.3,3.8,22.3c0,18.7-7.3,35.6-20.8,48h33.9l11.8-41.7h47.3l12.7,41.7
			h40.2L750,2.7z M706.4,96l9.8-34.5c2.7-9.4,5.1-21.7,7.6-31.4h0.5c2.4,9.7,5.4,21.7,8.3,31.4L742.9,96H706.4z"/>
	</g>
	<path fill="#141A22" d="M0,99.1c0,42.7,29.2,68.5,72.5,68.5c19.2,0,33.8-3,42.6-6.7c-0.4-0.4-0.8-0.9-1.3-1.3
		c-6.2-6.6-11.1-14.3-14.7-23c-5.5,1-11.4,1.5-17.4,1.5c-29,0-43.6-17.3-43.6-42.9c0-22.5,8.8-41,22.6-52
		c10-8.1,23.4-12.5,37.5-12.5c4.8,0,9.3,0.3,13.2,0.9c4.6-7.3,10-13.9,16-19.7l0,0l0,0c2.1-2,4.3-3.8,6.5-5.6
		c-6.3-2.6-17.9-5.3-32.4-5.3c-23.1,0-43.3,5.5-60.3,17.3C16.5,34.7,0,62.9,0,99.1z"/>
	<path fill="#141A22" d="M235.8,144.6c0.1-0.1,0.2-0.2,0.2-0.2l21.4-110.6c-10-19.9-29.8-32.7-58.6-32.7c-23.6,0-44.5,8.6-59.9,23
		c-19.2,18.2-30.2,47.2-30.2,76.4c0,37.6,23.8,67.3,66.4,67.3C199.8,167.9,220.5,159.3,235.8,144.6z M146,99.4
		c0-19.4,7.3-44.6,20.4-57.3c7.5-7.7,17.3-12.2,28.2-12.2c25.8,0,33.1,19.4,33.1,39.5c0,18.7-7.1,45.3-20,58
		c-7.5,7.2-17.3,11.7-27.5,11.7C156.5,139.1,146,122.1,146,99.4z"/>
	<path fill="#141A22" d="M372.7,144.9c1.8-1.4,3.6-2.9,5.2-4.5l20.2-104.6c-3.5-6.2-8-11.4-13.3-15.7C371,8.3,350.6,2.6,325,2.6
		c-15.8,0-31.4,1.2-45.3,3.6l-30.4,157.2c8,1.4,25.1,2.9,44.8,2.9C329.6,166.2,353.7,159.7,372.7,144.9z M310.2,31.3
		c3.6-0.7,8.8-1,14.8-1c29,0,43.3,15.1,43.3,40.5c0,19.4-5.8,36.2-17,48.6c-10.7,12.2-27.5,18.9-46.5,18.9c-6.1,0-11.2-0.2-15.3-1
		L310.2,31.3z"/>
	<linearGradient id="SVGID_1_" gradientUnits="userSpaceOnUse" x1="516.5865" y1="212.4149" x2="516.5865" y2="56.3565">
		<stop  offset="0" style="stop-color:#0479FC"/>
		<stop  offset="1" style="stop-color:#02B2FE"/>
	</linearGradient>
	<path fill="url(#SVGID_1_)" d="M562.8,74.4h-32.7l-57.2,73.1l-3.3,17.7h51.1l-5.5,29.2h24.9l5.5-29.2h14.2l3.7-20.3h-14L562.8,74.4
		z M530.2,118.9l-5.5,26h-25.1l0.2-0.4l19.8-25.5c5.7-7.9,10.3-15.5,15.7-23.6h0.7C534,103,531.8,111.3,530.2,118.9z"/>
	<polygon fill="#141A22" points="457.2,144.6 457.9,140.7 460.3,137.7 461.8,135.8 430.7,135.8 438.3,96.7 496.7,96.7 502.3,67.7
		443.9,67.7 450.7,33.2 512.5,33.2 518.3,3.8 421.2,3.8 390.1,165.3 453.3,165.3 453.9,162.3 	"/>
</g>
</svg>
