<?xml version="1.0" encoding="utf-8"?>
<!-- Generator: Adobe Illustrator 22.1.0, SVG Export Plug-In . SVG Version: 6.00 Build 0)  -->
<svg version="1.1" id="Layer_1" xmlns="http://www.w3.org/2000/svg" xmlns:xlink="http://www.w3.org/1999/xlink" x="0px" y="0px"
	 viewBox="0 0 146 37" style="enable-background:new 0 0 146 37;" xml:space="preserve">
<style type="text/css">
	.st0{enable-background:new    ;}
</style>
<g>
	<rect x="24.1" y="7.2" width="1.8" height="24.2"/>
	<rect x="16" y="12.3" width="9.5" height="1.3"/>
	<rect x="16" y="19.6" width="9.5" height="1.3"/>
	<rect x="16" y="26.8" width="9.5" height="1.3"/>
	<polygon points="17.4,12.6 16.7,13.7 24.1,20.5 24.8,19.5 	"/>
	<polygon points="24.1,12.6 24.8,13.7 17.4,20.5 16.7,19.5 	"/>
	<polygon points="17.4,19.9 16.7,21 24.1,27.8 24.8,26.8 	"/>
	<polygon points="24.1,19.9 24.8,21 17.4,27.8 16.7,26.8 	"/>
	<rect x="15.7" y="5.4" width="1.8" height="26"/>
</g>
<g>
	<g class="st0">
		<path d="M8.2,2.9h1.5V5h-1C7.1,5,6.8,5.6,6.8,6.8v7.5c0,2.6-1.4,3.8-2.9,4c-0.2,0-0.3,0.2,0,0.2c1.4,0.1,2.9,1.1,2.9,4v7.6
			c0,1.3,0.4,1.9,1.8,1.9h1v2.1H8.3c-2.3,0-3.8-1.4-3.8-3.7v-7.7c0-1.7-1.1-3.4-3.3-3.4v-1.9c2.3,0,3.3-1.5,3.3-3.5V6.5
			C4.4,4.3,6.1,2.9,8.2,2.9z"/>
		<path d="M36.8,14c0,2.1,1,3.5,3.3,3.5v1.9c-2.3,0-3.3,1.7-3.3,3.4v7.7c0,2.3-1.5,3.7-3.8,3.7h-1.4v-2.1h1c1.4,0,1.8-0.6,1.8-1.9
			v-7.6c0-2.9,1.5-3.9,2.9-4c0.3,0,0.2-0.2,0-0.2c-1.5-0.2-2.9-1.4-2.9-4V6.8c0-1.2-0.3-1.8-1.8-1.8h-1V2.9H33
			c2.2,0,3.8,1.4,3.8,3.6V14z"/>
	</g>
	<g class="st0">
		<path d="M58.5,10.2l-2.2,0c-0.2-1-0.9-1.7-2.1-1.7c-1.4,0-2.3,0.9-2.3,3.3c0,2.3,0.9,3.4,2.4,3.4c1.1,0,1.9-0.8,2.1-1.8l2.2,0
			c-0.2,1.8-1.4,3.3-4.2,3.3c-2.9,0-4.7-2-4.7-5c0-3,1.8-4.9,4.7-4.9C56.6,6.9,58.2,8.3,58.5,10.2z"/>
		<path d="M61.8,11.9c0-3.1,1.9-5,4.8-5c2.9,0,4.8,1.9,4.8,5c0,3-1.8,4.9-4.8,4.9C63.6,16.8,61.8,14.9,61.8,11.9z M69.1,11.9
			c0-2.4-1-3.4-2.5-3.4s-2.5,1-2.5,3.4c0,2.3,1,3.3,2.5,3.3C68.1,15.2,69.1,14.3,69.1,11.9z"/>
		<path d="M78.3,7.1c3.8,0.1,5.4,1.9,5.4,4.7c0,3-1.7,4.8-5.5,4.8h-3.1V7.1C75.4,7.1,77.4,7.1,78.3,7.1z M77.3,15.1h1
			c1.8,0,3.2-0.9,3.2-3.3c0-2.2-1.2-3.2-3.2-3.2h-1V15.1z"/>
	</g>
	<g class="st0">
		<path d="M90.5,7.1h7.2l0,1.6h-5V11H97v1.6h-4.4V15l5.1,0v1.6h-7.2V7.1z"/>
	</g>
	<g class="st0">
		<path d="M113.1,7.1l0,1.6h-5v2.4h4.3v1.6h-4.3v4H106V7.1H113.1z"/>
	</g>
	<g class="st0">
		<path d="M117.3,11.9c0-3.1,1.9-5,4.8-5c2.9,0,4.8,1.9,4.8,5c0,3-1.8,4.9-4.8,4.9C119.1,16.8,117.3,14.9,117.3,11.9z M124.6,11.9
			c0-2.4-1-3.4-2.5-3.4s-2.5,1-2.5,3.4c0,2.3,1,3.3,2.5,3.3C123.6,15.2,124.6,14.3,124.6,11.9z"/>
	</g>
	<g class="st0">
		<path d="M137.6,16.7l-1.7-3.7h-2.1v3.7h-2.1V7.1h4.4c2.5,0,3.6,1.2,3.6,2.9c0,1.5-0.9,2.3-1.8,2.7l1.9,4H137.6z M137.5,10
			c0-0.9-0.7-1.4-1.7-1.4h-2.1v2.9h1.9C136.8,11.5,137.5,10.9,137.5,10z"/>
	</g>
	<g class="st0">
		<path d="M45.6,29.1l0.6-0.1c0.3,1.3,1.7,2,3.3,2c1.8,0,3.1-0.8,3.1-1.9c0-1-0.6-1.8-1.9-2.1l-2.3-0.5c-1.5-0.4-2.4-1-2.4-2.1
			c0-1.5,1.4-2.7,3.5-2.7c2.4,0,3.4,1.2,3.6,2.5l-0.6,0.1c-0.3-1.6-1.6-2.1-3-2.1c-1.2,0-2.8,0.6-2.8,2.1c0,0.8,0.5,1.3,2.2,1.7
			l2.2,0.5c1.6,0.4,2.2,1.4,2.2,2.5c0,1.4-1.2,2.5-3.7,2.5C47.6,31.5,46,30.6,45.6,29.1z"/>
	</g>
	<g class="st0">
		<path d="M59,21.7h0.8l3.8,9.6H63l-1.2-3h-4.8l-1.2,3h-0.6L59,21.7z M61.6,27.7l-2.2-5.4l-2.2,5.4H61.6z"/>
	</g>
	<g class="st0">
		<path d="M73,24.2l-0.6,0.1c-0.3-1.2-1.3-2.2-3.1-2.2c-2.3,0-3.5,1.5-3.5,4.4c0,2.8,1.1,4.4,3.6,4.4c1.4,0,2.6-0.7,2.9-2L73,29
			c-0.2,1.4-1.8,2.4-3.5,2.4c-2.7,0-4.2-1.8-4.2-4.9c0-3.1,1.4-5,4.1-5C71.5,21.6,72.9,22.8,73,24.2z"/>
	</g>
	<g class="st0">
		<path d="M81.9,31.3l-2.1-4.6h-3.5v4.6h-0.6v-9.6h3.7c2,0,3.2,0.8,3.2,2.4c0,1.6-1.2,2.3-2.2,2.5l2.2,4.7H81.9z M82,24.2
			c0-1.4-0.9-1.9-2.6-1.9h-3.1v4h2.6C80.9,26.2,82,25.6,82,24.2z"/>
	</g>
	<g class="st0">
		<path d="M88.4,21.7h0.8l3.8,9.6h-0.6l-1.2-3h-4.8l-1.2,3h-0.6L88.4,21.7z M90.9,27.7l-2.2-5.4l-2.2,5.4H90.9z"/>
	</g>
	<g class="st0">
		<path d="M95.4,21.7H96l3.9,9l4-9h0.6v9.6h-0.6v-8.2l-3.6,8.2h-0.8L96,23.3v8.1h-0.6V21.7z"/>
	</g>
	<g class="st0">
		<path d="M108.3,21.7h6v0.5h-5.4v3.9h5.1v0.5h-5.1v4l5.6,0v0.5h-6.2V21.7z"/>
		<path d="M124.7,21.7v9.6h-0.5l-6.3-8.5v8.5h-0.6v-9.6h0.5l6.3,8.6v-8.6H124.7z"/>
		<path d="M126.8,21.7h7.4v0.5H131v9.1h-0.6v-9.1h-3.6V21.7z"/>
		<path d="M135.5,26.6c0-3.2,1.6-5,4.3-5c2.6,0,4.2,1.7,4.2,5c0,3.2-1.6,4.9-4.2,4.9C137.1,31.5,135.5,29.8,135.5,26.6z M143.3,26.6
			c0-3-1.3-4.4-3.6-4.4c-2.3,0-3.6,1.5-3.6,4.4c0,2.9,1.3,4.4,3.6,4.4C142.1,30.9,143.3,29.5,143.3,26.6z"/>
	</g>
</g>
</svg>
