<?xml version="1.0" encoding="utf-8"?>
<!-- Generator: Adobe Illustrator 22.1.0, SVG Export Plug-In . SVG Version: 6.00 Build 0)  -->
<svg version="1.1" id="Layer_1" xmlns="http://www.w3.org/2000/svg" xmlns:xlink="http://www.w3.org/1999/xlink" x="0px" y="0px"
	 viewBox="0 0 450 110" style="enable-background:new 0 0 450 110;" xml:space="preserve">
<style type="text/css">
	.st0{font-family:'PublicSans-Medium';}
	.st1{font-size:66.0593px;}
	.st2{font-family:'PublicSans-Black';}
	.st3{font-size:43.0568px;}
	.st4{font-family:'LibreBaskerville-Regular';}
	.st5{font-size:37.3401px;}
</style>
<text transform="matrix(1 0 0 1.5 6.0107 83.8364)" class="st0 st1">{   }</text>
<g>
	<rect x="36.3" y="22.6" width="6.7" height="67.1"/>
	<rect x="58.5" y="29.5" width="6.7" height="60.2"/>
	<rect x="49.3" y="39.2" transform="matrix(-0.7071 -0.7071 0.7071 -0.7071 51.2238 123.6103)" width="3.8" height="24"/>
	<rect x="48.7" y="39.2" transform="matrix(0.7071 -0.7071 0.7071 0.7071 -21.4001 50.7284)" width="3.8" height="24"/>
	<rect x="48.5" y="29.4" transform="matrix(4.652751e-11 -1 1 4.652751e-11 9.0482 91.7665)" width="3.8" height="24"/>
	<rect x="48.5" y="48.5" transform="matrix(-1.696360e-12 -1 1 -1.696360e-12 -10.0567 110.8713)" width="3.8" height="24"/>
	<rect x="49.3" y="59.7" transform="matrix(-0.7071 -0.7071 0.7071 -0.7071 36.7208 158.6237)" width="3.8" height="24"/>
	<rect x="48.7" y="59.7" transform="matrix(0.7071 -0.7071 0.7071 0.7071 -35.9031 56.7357)" width="3.8" height="24"/>
	<rect x="48.5" y="68.1" transform="matrix(-1.453887e-12 -1 1 -1.453887e-12 -29.6347 130.4494)" width="3.8" height="24"/>
</g>
<text transform="matrix(1.0853 0 0 1 137.5425 49.165)" class="st2 st3">C</text>
<text transform="matrix(1.0853 0 0 1 175.9536 49.165)" class="st2 st3">O</text>
<text transform="matrix(1.0853 0 0 1 216.1411 49.165)" class="st2 st3">D</text>
<text transform="matrix(1.0853 0 0 1 253.0103 49.165)" class="st2 st3">E</text>
<text transform="matrix(1.0853 0 0 1 304.7852 49.165)" class="st2 st3">F</text>
<text transform="matrix(1.0853 0 0 1 336.749 49.165)" class="st2 st3">O</text>
<text transform="matrix(1.0853 0 0 1 376 49.165)" class="st2 st3">R</text>
<text transform="matrix(1.0853 0 0 1 105.6099 92.7822)" class="st4 st5">S</text>
<text transform="matrix(1.0853 0 0 1 131.9507 92.7822)" class="st4 st5">A</text>
<text transform="matrix(1.0853 0 0 1 161.6147 92.7822)" class="st4 st5">C</text>
<text transform="matrix(1.0853 0 0 1 194.9263 92.7822)" class="st4 st5">R</text>
<text transform="matrix(1.0853 0 0 1 230.1021 92.7822)" class="st4 st5">A</text>
<text transform="matrix(1.0853 0 0 1 262.1978 92.7822)" class="st4 st5">M</text>
<text transform="matrix(1.0853 0 0 1 307.1807 92.7822)" class="st4 st5">E</text>
<text transform="matrix(1.0853 0 0 1 337.4111 92.7822)" class="st4 st5">N</text>
<text transform="matrix(1.0853 0 0 1 374.7754 92.7822)" class="st4 st5">T</text>
<text transform="matrix(1.0853 0 0 1 406.9531 92.7822)" class="st4 st5">O</text>
</svg>
